<?xml version="1.0" standalone="no"?>
<!DOCTYPE svg PUBLIC "-//W3C//DTD SVG 20010904//EN"
 "http://www.w3.org/TR/2001/REC-SVG-20010904/DTD/svg10.dtd">
<svg version="1.0" xmlns="http://www.w3.org/2000/svg"
 width="177.000000pt" height="250.000000pt" viewBox="0 0 177.000000 250.000000"
 preserveAspectRatio="xMidYMid meet">

<g transform="translate(0.000000,250.000000) scale(0.100000,-0.100000)"
fill="#000000" stroke="none">
<path d="M847 2310 c-21 -6 -47 -15 -58 -20 -13 -8 -19 -7 -19 1 0 6 -19 0
-42 -14 -24 -14 -59 -33 -78 -44 -19 -11 -48 -38 -65 -61 -16 -22 -35 -41 -42
-41 -6 -1 -32 -27 -56 -58 -25 -32 -54 -66 -65 -76 -11 -10 -25 -38 -32 -63
-12 -41 -11 -46 9 -68 16 -17 24 -44 31 -107 11 -86 30 -155 55 -199 l14 -25
1 29 c0 45 13 22 30 -52 14 -60 19 -69 50 -84 46 -24 159 -24 207 -2 40 20 62
49 83 113 20 62 41 60 62 -8 20 -63 41 -89 85 -107 47 -20 160 -18 203 4 32
15 36 23 49 85 8 37 18 67 22 67 5 0 6 -7 3 -15 -4 -8 -4 -15 -1 -15 13 0 76
155 97 238 l24 92 -22 75 c-12 41 -22 82 -22 90 0 9 -16 25 -35 36 -19 12 -35
25 -35 30 0 4 -18 13 -40 19 -22 6 -40 14 -40 18 0 5 -22 33 -50 64 -32 36
-67 63 -100 77 -59 25 -166 35 -223 21z m99 -111 c42 -20 74 -59 89 -108 6
-19 -2 -14 -36 22 -61 63 -128 79 -228 56 -51 -11 -66 -5 -25 12 114 46 139
48 200 18z m143 -48 c26 -36 27 -72 3 -101 -17 -21 -17 -21 -14 22 3 33 -2 51
-22 81 -14 21 -26 40 -26 43 0 12 41 -19 59 -45z m91 -54 c0 -13 -60 -77 -72
-77 -4 0 0 16 9 35 9 19 20 32 24 29 4 -2 10 5 14 16 7 20 25 19 25 -3z m-387
0 c18 -8 38 -21 44 -29 11 -13 6 -14 -40 -11 -38 3 -72 -3 -126 -21 -103 -36
-109 -32 -21 14 41 21 68 40 60 41 -8 0 -4 5 10 9 36 11 37 11 73 -3z m476
-28 c41 -14 40 -30 -1 -18 -18 5 -34 9 -35 9 -2 0 -3 5 -3 10 0 12 0 12 39 -1z
m-389 -102 c41 -20 60 -22 198 -22 l154 0 27 -31 c26 -29 29 -40 35 -144 4
-61 5 -114 2 -117 -3 -3 -19 0 -37 6 -51 18 -175 13 -271 -11 l-87 -21 -94 23
c-95 22 -224 25 -286 5 -21 -7 -23 -6 -17 10 3 10 12 59 18 110 l12 92 48 17
c26 9 77 39 113 66 91 69 96 71 120 54 11 -8 40 -25 65 -37z m-270 17 c0 -3
-20 -14 -44 -25 -42 -18 -76 -17 -76 2 0 4 7 6 15 3 8 -4 21 -2 28 4 6 6 23
12 37 15 14 2 28 5 33 6 4 0 7 -2 7 -5z m30 -26 c-14 -11 -49 -32 -78 -45 -46
-22 -57 -23 -83 -13 -41 18 -36 25 19 26 29 1 66 11 97 26 62 32 77 34 45 6z
m158 -338 c77 -28 36 -153 -59 -180 -50 -15 -117 -2 -149 29 -51 48 -45 146
10 163 33 10 157 2 198 -12z m412 7 c52 -26 45 -128 -13 -171 -44 -32 -133
-29 -180 7 -39 29 -62 84 -53 122 5 18 18 28 54 39 59 18 159 20 192 3z m-670
-7 c0 -5 -7 -10 -16 -10 -8 0 -12 5 -9 10 3 6 10 10 16 10 5 0 9 -4 9 -10z
m745 0 c3 -5 -3 -10 -15 -10 -12 0 -18 5 -15 10 3 6 10 10 15 10 5 0 12 -4 15
-10z"/>
<path d="M280 1430 c0 -6 42 -10 105 -10 63 0 105 4 105 10 0 6 -42 10 -105
10 -63 0 -105 -4 -105 -10z"/>
<path d="M1300 1430 c0 -6 38 -10 95 -10 57 0 95 4 95 10 0 6 -38 10 -95 10
-57 0 -95 -4 -95 -10z"/>
<path d="M365 1380 c-10 -17 -75 -212 -75 -227 0 -19 86 -18 94 2 3 8 16 15
30 15 13 0 26 -7 30 -15 4 -10 20 -15 51 -15 25 0 45 3 45 8 0 4 -20 59 -44
122 l-44 115 -40 3 c-22 2 -43 -2 -47 -8z m58 -160 c4 -14 0 -20 -13 -20 -13
0 -16 6 -12 25 5 28 17 26 25 -5z"/>
<path d="M562 1268 l3 -123 78 -3 77 -3 0 51 c0 49 -1 50 -30 50 l-30 0 0 75
0 75 -50 0 -51 0 3 -122z"/>
<path d="M740 1294 c0 -92 1 -97 29 -125 24 -24 38 -29 76 -29 38 0 52 5 76
29 28 28 29 33 29 125 l0 96 -45 0 -44 0 -3 -85 c-4 -113 -22 -115 -26 -2 l-3
87 -44 0 -45 0 0 -96z"/>
<path d="M980 1265 l0 -125 45 0 c43 0 45 1 45 30 0 17 4 30 9 30 5 0 19 -13
31 -30 18 -25 28 -30 61 -30 21 0 39 3 39 8 0 4 -14 24 -30 46 -28 36 -28 39
-13 63 13 20 14 30 4 63 -15 51 -51 70 -131 70 l-60 0 0 -125z m119 41 c8 -10
8 -16 -2 -25 -16 -13 -27 -5 -27 21 0 21 13 23 29 4z"/>
<path d="M1305 1378 c-17 -46 -75 -223 -75 -230 0 -15 88 -9 94 7 3 8 17 15
31 15 14 0 28 -7 31 -15 8 -19 94 -21 93 -2 0 6 -19 62 -43 122 l-42 110 -42
3 c-28 2 -44 -1 -47 -10z m57 -153 c4 -17 1 -25 -8 -25 -14 0 -19 31 -7 43 9
10 10 9 15 -18z"/>
<path d="M744 1049 c-68 -64 -77 -70 -111 -67 -29 2 -41 9 -53 31 -14 25 -13
30 2 57 17 29 16 30 -3 30 -48 0 -65 -134 -26 -210 31 -61 67 -85 125 -84 63
1 120 32 175 94 l44 51 32 -39 c41 -53 117 -101 172 -108 36 -5 50 -1 79 18
46 31 76 78 84 130 10 71 -16 148 -50 148 -16 0 -19 -16 -4 -25 17 -10 11 -61
-8 -78 -40 -36 -96 -14 -160 61 -50 60 -70 68 -111 48 -26 -14 -33 -14 -65 -1
-19 8 -38 15 -41 15 -3 0 -40 -32 -81 -71z"/>
<path d="M284 1101 c-2 -2 -1 -8 2 -12 7 -12 204 -11 204 0 0 9 -197 20 -206
12z"/>
<path d="M1307 1104 c-19 -19 1 -25 86 -22 55 2 91 7 90 13 -3 11 -165 19
-176 9z"/>
<path d="M297 1043 c-4 -3 -7 -24 -7 -45 0 -30 4 -38 18 -38 14 0 15 2 2 10
-13 9 -13 11 0 20 13 9 13 11 0 21 -11 8 -12 12 -2 16 6 2 12 9 12 14 0 11
-14 12 -23 2z"/>
<path d="M340 1035 c-10 -13 -10 -19 4 -33 21 -24 20 -33 -1 -25 -11 4 -14 3
-9 -5 4 -7 14 -12 22 -12 16 0 19 36 4 45 -5 3 -10 11 -10 16 0 6 5 7 10 4 6
-3 10 -2 10 4 0 18 -17 21 -30 6z"/>
<path d="M388 1005 c6 -52 12 -58 12 -12 0 21 5 37 10 37 6 0 10 -16 10 -36 0
-28 3 -35 18 -32 13 2 17 13 17 43 0 39 -1 40 -36 40 l-37 1 6 -41z m62 -5 c0
-16 -4 -30 -10 -30 -5 0 -10 14 -10 30 0 17 5 30 10 30 6 0 10 -13 10 -30z"/>
<path d="M1317 1043 c-11 -10 -8 -25 3 -18 6 3 10 -1 10 -9 0 -8 -4 -18 -10
-21 -16 -10 -12 -35 5 -35 9 0 15 6 14 13 -1 6 0 21 1 32 1 14 5 10 11 -13 12
-41 33 -37 37 8 4 39 -13 63 -29 40 -8 -11 -12 -12 -16 -2 -5 13 -16 16 -26 5z
m60 -50 c-3 -10 -5 -4 -5 12 0 17 2 24 5 18 2 -7 2 -21 0 -30z"/>
<path d="M1409 1046 c-9 -9 3 -86 12 -80 11 7 12 84 1 84 -5 0 -11 -2 -13 -4z"/>
<path d="M1444 1036 c-3 -9 -1 -22 5 -30 6 -7 8 -22 5 -32 -5 -15 -4 -16 5 -8
17 16 19 76 4 81 -7 3 -16 -3 -19 -11z m26 -16 c0 -5 -2 -10 -4 -10 -3 0 -8 5
-11 10 -3 6 -1 10 4 10 6 0 11 -4 11 -10z"/>
<path d="M851 879 c-57 -66 -106 -88 -193 -89 l-67 0 -10 -37 c-23 -81 -7
-223 24 -223 7 0 15 -20 18 -51 7 -58 34 -118 60 -133 10 -6 42 -34 71 -62 51
-50 117 -83 192 -97 29 -5 32 -4 32 20 0 18 14 39 46 68 25 24 46 48 46 55 0
7 6 10 14 7 27 -11 91 86 102 155 4 24 11 35 19 32 24 -9 39 98 25 170 -19 94
-20 96 -98 96 -87 1 -135 23 -193 88 l-44 51 -44 -50z m328 -296 c-7 -13 -16
-23 -20 -23 -4 0 -1 12 7 28 7 15 15 43 16 62 l1 35 4 -39 c3 -22 -1 -50 -8
-63z m-416 -115 c12 -10 17 -18 11 -18 -20 0 -64 56 -70 90 -5 34 -5 34 16
-10 11 -25 31 -53 43 -62z m-6 -85 c46 -57 66 -72 130 -99 58 -23 58 -24 21
-24 -50 0 -87 15 -126 53 -40 38 -88 128 -97 183 -6 36 -5 35 18 -18 13 -31
38 -74 54 -95z"/>
</g>
</svg>
